<svg width="40" height="17" viewBox="0 0 40 17" fill="none" xmlns="http://www.w3.org/2000/svg">
<rect width="40" height="17" rx="8.5" fill="#14F595"/>
<path d="M10 11.8333L13 10.1167V6.79166L10 5.16666L7 6.79166V10.1167L10 11.8333ZM10.95 7.68332C10.8222 7.55555 10.6764 7.45138 10.5125 7.37082C10.3486 7.29027 10.1778 7.24999 10 7.24999C9.82222 7.24999 9.65139 7.29027 9.4875 7.37082C9.32361 7.45138 9.17778 7.55555 9.05 7.68332L7.775 6.93332L10 5.74999L12.225 6.93332L10.95 7.68332ZM10.25 11.1167V9.72499C10.5389 9.64721 10.7778 9.49721 10.9667 9.27499C11.1556 9.05277 11.25 8.79443 11.25 8.49999C11.25 8.43888 11.2458 8.37638 11.2375 8.31249C11.2292 8.2486 11.2139 8.1861 11.1917 8.12499L12.5 7.34999V9.82499L10.25 11.1167ZM10 9.24999C9.78889 9.24999 9.61111 9.17777 9.46667 9.03332C9.32222 8.88888 9.25 8.7111 9.25 8.49999C9.25 8.28888 9.32222 8.1111 9.46667 7.96666C9.61111 7.82221 9.78889 7.74999 10 7.74999C10.2111 7.74999 10.3889 7.82221 10.5333 7.96666C10.6778 8.1111 10.75 8.28888 10.75 8.49999C10.75 8.7111 10.6778 8.88888 10.5333 9.03332C10.3889 9.17777 10.2111 9.24999 10 9.24999ZM9.75 11.1167L7.5 9.82499V7.34999L8.80833 8.12499C8.78611 8.1861 8.77083 8.2486 8.7625 8.31249C8.75417 8.37638 8.75 8.43888 8.75 8.49999C8.75 8.79443 8.84444 9.05277 9.03333 9.27499C9.22222 9.49721 9.46111 9.64721 9.75 9.72499V11.1167Z" fill="black"/>
<path d="M10 11.8333L13 10.1167V6.79166L10 5.16666L7 6.79166V10.1167L10 11.8333ZM10.95 7.68332C10.8222 7.55555 10.6764 7.45138 10.5125 7.37082C10.3486 7.29027 10.1778 7.24999 10 7.24999C9.82222 7.24999 9.65139 7.29027 9.4875 7.37082C9.32361 7.45138 9.17778 7.55555 9.05 7.68332L7.775 6.93332L10 5.74999L12.225 6.93332L10.95 7.68332ZM10.25 11.1167V9.72499C10.5389 9.64721 10.7778 9.49721 10.9667 9.27499C11.1556 9.05277 11.25 8.79443 11.25 8.49999C11.25 8.43888 11.2458 8.37638 11.2375 8.31249C11.2292 8.2486 11.2139 8.1861 11.1917 8.12499L12.5 7.34999V9.82499L10.25 11.1167ZM10 9.24999C9.78889 9.24999 9.61111 9.17777 9.46667 9.03332C9.32222 8.88888 9.25 8.7111 9.25 8.49999C9.25 8.28888 9.32222 8.1111 9.46667 7.96666C9.61111 7.82221 9.78889 7.74999 10 7.74999C10.2111 7.74999 10.3889 7.82221 10.5333 7.96666C10.6778 8.1111 10.75 8.28888 10.75 8.49999C10.75 8.7111 10.6778 8.88888 10.5333 9.03332C10.3889 9.17777 10.2111 9.24999 10 9.24999ZM9.75 11.1167L7.5 9.82499V7.34999L8.80833 8.12499C8.78611 8.1861 8.77083 8.2486 8.7625 8.31249C8.75417 8.37638 8.75 8.43888 8.75 8.49999C8.75 8.79443 8.84444 9.05277 9.03333 9.27499C9.22222 9.49721 9.46111 9.64721 9.75 9.72499V11.1167Z" fill="url(#paint0_linear_265_1892)" fill-opacity="0.1"/>
<path d="M21.5635 8.73047V11.1738C21.4727 11.2939 21.3306 11.4258 21.1372 11.5693C20.9468 11.71 20.6934 11.8315 20.377 11.9341C20.0605 12.0366 19.6665 12.0879 19.1948 12.0879C18.7935 12.0879 18.4258 12.0205 18.0918 11.8857C17.7578 11.748 17.4692 11.5474 17.2261 11.2837C16.9858 11.02 16.7998 10.6992 16.668 10.3213C16.5361 9.94043 16.4702 9.50684 16.4702 9.02051V8.57666C16.4702 8.09326 16.5303 7.6626 16.6504 7.28467C16.7734 6.90381 16.9492 6.58154 17.1777 6.31787C17.4062 6.0542 17.6816 5.85498 18.0039 5.72021C18.3291 5.58252 18.6968 5.51367 19.1069 5.51367C19.6313 5.51367 20.0649 5.60156 20.4077 5.77734C20.7534 5.9502 21.02 6.19043 21.2075 6.49805C21.395 6.80566 21.5137 7.15723 21.5635 7.55273H20.4824C20.4473 7.33008 20.3784 7.13086 20.2759 6.95508C20.1763 6.7793 20.0327 6.6416 19.8452 6.54199C19.6606 6.43945 19.4204 6.38818 19.1245 6.38818C18.8696 6.38818 18.6455 6.43652 18.4521 6.5332C18.2588 6.62988 18.0977 6.77197 17.9688 6.95947C17.8428 7.14697 17.7476 7.37549 17.6831 7.64502C17.6187 7.91455 17.5864 8.22217 17.5864 8.56787V9.02051C17.5864 9.37207 17.623 9.68408 17.6963 9.95654C17.7725 10.229 17.8809 10.459 18.0215 10.6465C18.165 10.834 18.3394 10.9761 18.5444 11.0728C18.7495 11.1665 18.981 11.2134 19.2388 11.2134C19.4907 11.2134 19.6973 11.1929 19.8584 11.1519C20.0195 11.1079 20.147 11.0566 20.2407 10.998C20.3374 10.9365 20.4121 10.8779 20.4648 10.8223V9.55225H19.1333V8.73047H21.5635ZM22.7402 5.60156H25.0033C25.4897 5.60156 25.9042 5.6748 26.247 5.82129C26.5898 5.96777 26.852 6.18457 27.0336 6.47168C27.2182 6.75586 27.3105 7.10742 27.3105 7.52637C27.3105 7.8457 27.2519 8.12695 27.1347 8.37012C27.0175 8.61328 26.852 8.81836 26.6381 8.98535C26.4242 9.14941 26.1694 9.27686 25.8735 9.36768L25.5395 9.53027H23.5048L23.496 8.65576H25.0209C25.2846 8.65576 25.5043 8.60889 25.6801 8.51514C25.8559 8.42139 25.9877 8.29395 26.0756 8.13281C26.1664 7.96875 26.2118 7.78418 26.2118 7.5791C26.2118 7.35645 26.1679 7.16309 26.08 6.99902C25.995 6.83203 25.8632 6.70459 25.6845 6.6167C25.5058 6.52588 25.2787 6.48047 25.0033 6.48047H23.8432V12H22.7402V5.60156ZM26.392 12L24.8891 9.12598L26.0448 9.12158L27.5697 11.9429V12H26.392ZM30.223 12H28.8563L28.8651 11.1255H30.223C30.6185 11.1255 30.9496 11.0391 31.2162 10.8662C31.4857 10.6934 31.6878 10.4458 31.8226 10.1235C31.9603 9.80127 32.0291 9.41748 32.0291 8.97217V8.625C32.0291 8.2793 31.9896 7.97314 31.9105 7.70654C31.8343 7.43994 31.7201 7.21582 31.5677 7.03418C31.4183 6.85254 31.2337 6.71484 31.014 6.62109C30.7972 6.52734 30.5467 6.48047 30.2625 6.48047H28.8299V5.60156H30.2625C30.6873 5.60156 31.0755 5.67334 31.4271 5.81689C31.7787 5.95752 32.0819 6.16113 32.3368 6.42773C32.5946 6.69434 32.7923 7.01367 32.93 7.38574C33.0677 7.75781 33.1366 8.17383 33.1366 8.63379V8.97217C33.1366 9.43213 33.0677 9.84814 32.93 10.2202C32.7923 10.5923 32.5946 10.9116 32.3368 11.1782C32.0789 11.4419 31.7713 11.6455 31.4139 11.7891C31.0594 11.9297 30.6624 12 30.223 12ZM29.4671 5.60156V12H28.3641V5.60156H29.4671Z" fill="#111111"/>
<defs>
<linearGradient id="paint0_linear_265_1892" x1="12.3312" y1="5.84173" x2="7.44391" y2="5.88144" gradientUnits="userSpaceOnUse">
<stop stop-color="#713FFF"/>
<stop offset="1" stop-color="#019A59"/>
</linearGradient>
</defs>
</svg>
